# xmcd CD database file
#
# Track frame offsets:
#	150
#	19678
#	40188
#	59641
#	79878
#	100809
#	121969
#	144699
#	164848
#	191663
#	210712
#	232269
#	253582
#	279472
#
# Disc length: 4023 seconds
#
# Revision: 0
# Processed by: cddbd v1.5.1PL2 Copyright (c) Steve Scherf et al.
# Submitted via: CDex 1.51
#
DISCID=d40fb50e
DTITLE=Clifton DeMarks - Sax To The Max
DYEAR=2003
DGENRE=Jazz
TTITLE0=Easy Going
TTITLE1=Doo Bop
TTITLE2=Feelin' You
TTITLE3=G-Bop
TTITLE4=Nice n Easy
TTITLE5=Smooth Operator
TTITLE6=Summer Madness
TTITLE7=Sweet Thang
TTITLE8=Sexual Healing
TTITLE9=Sylvia's On Sunday
TTITLE10=Butterflies
TTITLE11=Take 5
TTITLE12=This Masquerade
TTITLE13=You
EXTD=YEAR: 2003
EXTT0=
EXTT1=
EXTT2=
EXTT3=
EXTT4=
EXTT5=
EXTT6=
EXTT7=
EXTT8=
EXTT9=
EXTT10=
EXTT11=
EXTT12=
EXTT13=
PLAYORDER=
